<svg id="visual" viewBox="0 0 900 600" width="900" height="600" xmlns="http://www.w3.org/2000/svg" xmlns:xlink="http://www.w3.org/1999/xlink" version="1.1"><g transform="translate(475.9719489830038 295.30270273279626)"><path d="M130.8 -158.9C166 -154.5 188.6 -111.5 196.5 -68.3C204.5 -25 197.8 18.5 173 44.3C148.2 70 105.3 77.9 73.4 103.5C41.5 129.2 20.8 172.6 3 168.4C-14.7 164.2 -29.4 112.5 -76.9 91.9C-124.5 71.4 -204.9 82 -235.8 59.5C-266.6 37 -247.9 -18.7 -218.8 -59.5C-189.6 -100.3 -150.1 -126.2 -111.9 -129.6C-73.7 -133.1 -36.8 -114 5.5 -121.6C47.8 -129.1 95.6 -163.3 130.8 -158.9" fill="#6366F1"></path></g></svg>