<?xml version="1.0" standalone="no"?>
<svg viewBox="0 0 200 200" xmlns="http://www.w3.org/2000/svg">
  <path fill="#FCD34D" d="M41.6,-68.4C53.3,-57.1,61.9,-44.7,70.9,-30.7C79.9,-16.7,89.3,-1.3,84.5,10.2C79.8,21.6,60.9,29,47.9,38.3C34.9,47.6,27.7,58.7,18.3,60.7C8.9,62.8,-2.7,55.7,-11.4,48.6C-20.1,41.6,-25.8,34.5,-38.7,28.6C-51.6,22.7,-71.6,17.9,-80.2,7C-88.7,-3.8,-85.8,-20.8,-73.7,-27.9C-61.5,-35,-40.2,-32.1,-26.4,-42.5C-12.5,-52.9,-6.3,-76.4,4.3,-83.1C14.9,-89.9,29.8,-79.7,41.6,-68.4Z" transform="translate(100 100)" />
</svg>
