<svg xmlns="http://www.w3.org/2000/svg" width="500" height="500" style="width:100%;height:100%"><defs><clipPath id="a"><path d="M0 0h500v500H0z"/></clipPath></defs><g display="block" clip-path="url(#a)"><path stroke-linecap="round" stroke-linejoin="round" stroke="#21D2ED" stroke-width="12.04" d="M257.442 116.989h-38.658M314.212 280.705v54.392c0 12.705-10.382 23.087-23.087 23.087H185.101c-12.705 0-23.088-10.382-23.088-23.087V112.968c0-12.695 10.383-23.088 23.088-23.088h106.024c12.705 0 23.087 10.393 23.087 23.088v124.395m0 43.342l-48.808-16.8c-11.059-3.738-17.055-15.849-13.326-26.908 2.98-8.838 11.306-14.441 20.172-14.441-.786.018 4.516.356 6.746 1.115l35.216 13.692 32.493 11.324s.037.01.046.028c4.99 2.623 8.939 7.202 10.575 13.024l15.547 55.425 10.794 33.544s-58.98 39.457-88.475 59.181l-55.9-51.705m144.366-7.468l17.996 26.89-88.447 59.2-18.015-26.918" fill="none"/></g></svg>