<svg xmlns="http://www.w3.org/2000/svg" width="500" height="500" style="width:100%;height:100%"><defs><clipPath id="a"><path d="M0 0h500v500H0z"/></clipPath></defs><g clip-path="url(#a)"><g display="block"><path stroke-linecap="round" stroke-linejoin="round" stroke="#2CD3BE" stroke-width="12.04" d="M306.536 142.722v-37.724h46.812v81.758M382.662 214.343v195.776H117.286v-195.73" fill="none"/><path stroke-linecap="round" stroke-linejoin="round" stroke="#2CD3BE" stroke-width="12.04" d="M409.462 239.558L250.031 89.564 90.538 239.558" fill="none"/></g><path stroke-linecap="round" stroke-linejoin="round" stroke="#2CD3BE" stroke-width="12.04" d="M289.872 354.836c.575-19.125 15.984-19.495 15.984-39.346v.005c0-20.228-16-20.228-16-40.456s16-20.228 16-40.456M241.872 354.836c.575-19.125 15.984-19.495 15.984-39.346v.005c0-20.228-16-20.228-16-40.456s16-20.228 16-40.456M193.872 354.836c.575-19.125 15.984-19.495 15.984-39.346v.005c0-20.228-16-20.228-16-40.456s16-20.228 16-40.456" fill="none" display="block"/></g></svg>