<svg xmlns="http://www.w3.org/2000/svg" width="500" height="500" style="width:100%;height:100%"><defs><clipPath id="b"><path d="M0 0h500v500H0z"/></clipPath><clipPath id="f"><path d="M0 0h500v500H0z"/></clipPath><clipPath id="d"><path d="M0 0h500v500H0z"/></clipPath><mask id="e"><g display="block"><path fill="red" d="M28.966 43.958h-57.932v-86.963h41.893l8.02 8.02 8.019 8.019v70.924z" transform="matrix(3.7 0 0 3.7 422.049 2.1)"/><path stroke-linecap="round" stroke-linejoin="round" fill-opacity="0" stroke="#131432" stroke-width="0" d="M529.223 164.746H314.874v-321.764H469.88l29.674 29.674 29.67 29.67v262.42z"/></g></mask><mask id="c"><g filter="url(#a)"><g display="block"><path fill="red" d="M28.966 43.958h-57.932v-86.963h41.893l8.02 8.02 8.019 8.019v70.924z" transform="matrix(3.7 0 0 3.7 422.049 2.1)"/><path stroke-linecap="round" stroke-linejoin="round" fill-opacity="0" stroke="#131432" stroke-width="0" d="M529.223 164.746H314.874v-321.764H469.88l29.674 29.674 29.67 29.67v262.42z"/></g></g></mask><filter id="a" filterUnits="objectBoundingBox" x="0%" y="0%" width="100%" height="100%"><feComponentTransfer in="SourceGraphic"><feFuncA type="table" tableValues="1.0 0.0"/></feComponentTransfer></filter></defs><g clip-path="url(#b)"><g mask="url(#c)" display="block"><g clip-path="url(#d)" transform="matrix(1 0 0 1 13.25 4.001)"><path stroke-linecap="round" stroke-linejoin="round" stroke="#F43E5E" stroke-width="12.950000000000001" d="M182.627 351.846h137.488M182.627 300.046h137.488M182.627 248.246h137.488M182.627 196.446h137.488" fill="none" display="block"/></g></g><path stroke-linecap="round" stroke-linejoin="round" stroke="#F43E5E" stroke-width="12.950000000000001" d="M373.823 429.295H159.475V107.532h155.004l29.674 29.674 29.67 29.67v262.42z" fill="none" display="block"/><path stroke-linecap="round" stroke-linejoin="round" stroke="#F43E5E" stroke-width="12.950000000000001" d="M363.226 164.746h-48.352V109.36" fill="none" display="block"/><path stroke-linecap="round" stroke-linejoin="round" stroke="#F43E5E" stroke-width="12.950000000000001" d="M344.349 135.3V85.35H133.91v318.2l23.125.463" fill="none" display="block"/></g></svg>