<svg xmlns="http://www.w3.org/2000/svg" width="500" height="500" style="width:100%;height:100%"><defs><clipPath id="a"><path d="M0 0h500v500H0z"/></clipPath></defs><g clip-path="url(#a)"><path stroke-linecap="round" stroke-linejoin="round" stroke="#334154" stroke-width="12.6" d="M396.176 184.888C405.06 204.784 410 226.82 410 250c0 88.304-71.696 160-160 160 0 0 0 0 0 0-47.152 0-89.564-20.44-118.86-52.936" fill="none" display="block"/><path stroke-linecap="round" stroke-linejoin="round" stroke="#334154" stroke-width="3.15" d="M-16.438 11.713V23.5h11.75" fill="none" transform="matrix(0 4.12764 -3.94624 0 214.235 414.85)" display="block"/><path stroke-linecap="round" stroke-linejoin="round" stroke="#2CD3BE" stroke-width="12.6" d="M103.824 315.112C94.94 295.216 90 273.18 90 250c0-88.304 71.696-160 160-160 0 0 0 0 0 0 47.152 0 89.564 20.44 118.86 52.936" fill="none" display="block"/><path stroke-linecap="round" stroke-linejoin="round" stroke="#2CD3BE" stroke-width="3.15" d="M-16.438 11.713V23.5h11.75" fill="none" transform="matrix(0 -4.07448 3.9616 0 285.904 87.273)" display="block"/></g></svg>