<svg xmlns="http://www.w3.org/2000/svg" width="500" height="500" style="width:100%;height:100%"><defs><filter id="a" filterUnits="objectBoundingBox" x="0%" y="0%" width="100%" height="100%"><feComponentTransfer in="SourceGraphic"><feFuncA type="table" tableValues="1.0 0.0"/></feComponentTransfer></filter><filter id="b" filterUnits="objectBoundingBox" x="0%" y="0%" width="100%" height="100%"><feComponentTransfer in="SourceGraphic"><feFuncA type="table" tableValues="1.0 0.0"/></feComponentTransfer></filter><mask id="e"><g filter="url(#a)"><g display="block"><path fill="red" d="M60.898-76.632l-1.324 37.095C58.458-7.442 32.115 18 0 18c-32.115 0-58.458-25.442-59.574-57.537l-1.07-40.125" transform="translate(250 250)"/></g></g></mask><mask id="d"><g filter="url(#b)"><path fill="red" d="M65.622 25.757l.024 13.217H39.821L28.918 6.463 6.067 38.974h-71.713l.024-13.217c.053-29.371 18.961-53.631 47.108-62.024A64.497 64.497 0 010-38.974c6.644 0 12.82 1.009 18.514 2.707 28.147 8.393 47.055 32.653 47.108 62.024z" transform="translate(250 127.532)" display="block"/></g></mask><clipPath id="c"><path d="M0 0h500v500H0z"/></clipPath></defs><g clip-path="url(#c)"><g mask="url(#d)" display="block"><path stroke-linecap="round" stroke-linejoin="round" stroke="#C084FB" stroke-width="12.04" d="M201.645 97.559c0 27.318 22.146 49.464 49.464 49.464 27.318 0 49.464-22.146 49.464-49.464 0-27.318-22.146-49.464-49.464-49.464-27.318 0-49.464 22.146-49.464 49.464z" fill="none"/></g><path stroke-linecap="round" stroke-linejoin="round" stroke="#C084FB" stroke-width="12.04" d="M250.016 395.821v.128m-.008-25.878v.128m-.004-27.128v.128M174.476 234.18s0 0 0 0c8.787 0 15.976-7.19 15.976-15.977v-30.906c0-8.787-7.189-15.977-15.976-15.977 0 0 0 0 0 0-8.787 0-15.976 7.19-15.976 15.977v30.906c0 8.787 7.189 15.977 15.976 15.977zm151.25.046s0 0 0 0c8.787 0 15.976-7.189 15.976-15.976v-30.907c0-8.787-7.189-15.976-15.976-15.976 0 0 0 0 0 0-8.787 0-15.976 7.189-15.976 15.976v30.907c0 8.787 7.189 15.976 15.976 15.976zm-167.271-46.881l.023-35.153c0-25.178 10.291-48.058 26.885-64.652C201.942 70.946 224.822 60.655 250 60.655c50.34 0 91.522 41.197 91.522 91.537l.023 35.403M283.88 276.69h7.62c45.84 0 83 37.16 83 83v27.76c0 7.62-5.71 14.03-13.28 14.9l-29.04 3.36a85.26 85.26 0 00-23.07 6.03c-18.91 7.91-39 11.88-59.11 11.92h-.3c-20.1 0-40.2-3.93-59.12-11.8l-.2-.08c-7.69-3.2-15.79-5.3-24.07-6.26l-27.53-3.17c-7.57-.87-13.28-7.28-13.28-14.9v-27.76c0-45.84 37.16-83 83-83h7.63" fill="none" display="block"/><path stroke-linecap="round" stroke-linejoin="round" stroke="#C084FB" stroke-width="12.04" d="M193.1 278.13c.36 4.09 2.27 8.24 5.18 12.28 22.36 31.06 81.06 31.06 103.43 0 2.92-4.04 4.83-8.19 5.19-12.28" fill="none" display="block"/><g mask="url(#e)" display="block"><path stroke-linecap="round" stroke-linejoin="round" stroke="#C084FB" stroke-width="12.04" d="M216.13 276.691l.13-36.24m67.62 36.191l.13-36.24" fill="none"/></g><path stroke-linecap="round" stroke-linejoin="round" stroke="#C084FB" stroke-width="12.04" d="M310.898 173.368l-1.324 37.095C308.458 242.558 282.115 268 250 268c0 0 0 0 0 0-32.115 0-58.458-25.442-59.574-57.537l-1.07-40.125" fill="none" display="block"/><path stroke-linecap="round" stroke-linejoin="round" stroke="#C084FB" stroke-width="12.04" d="M256.748 236.321h7.514c3.102 0 5.639-2.538 5.639-5.64 0 0 0 0 0 0 0-3.102-2.537-5.64-5.639-5.64h-7.514c-3.102 0-5.639 2.538-5.639 5.64 0 0 0 0 0 0 0 3.102 2.537 5.64 5.639 5.64z" fill="none" display="block"/><path stroke-linecap="round" stroke-linejoin="round" stroke="#C084FB" stroke-width="12.04" d="M269.31 230.681l15.539-2.263a45.281 45.281 0 0017.959-6.727c13.66-8.78 38.872-24.39 38.872-24.39M315.622 153.289l.024 13.217h-25.825l-10.903-32.511-22.851 32.511h-71.713l.024-13.217c.053-29.371 18.961-53.631 47.108-62.024A64.497 64.497 0 01250 88.558c6.644 0 12.82 1.009 18.514 2.707 28.147 8.393 47.055 32.653 47.108 62.024z" fill="none" display="block"/></g></svg>