<svg xmlns="http://www.w3.org/2000/svg" width="500" height="500" style="width:100%;height:100%"><defs><clipPath id="a"><path d="M0 0h500v500H0z"/></clipPath></defs><g clip-path="url(#a)"><path stroke-linecap="round" stroke-linejoin="round" stroke="#63748A" stroke-width="12.32" d="M170.357 121.033c-3.549-4.886-21.68 12.257-40.46 38.258 0 0 0 0 0 0-18.782 26-2.345 78.797 36.68 117.822l60.811 60.811c39.025 39.025 91.663 55.303 117.469 36.327 0 0 0 0 0 0 25.806-18.976 43.427-36.813 39.324-39.804 0 0 0 0 0 0l-27.705-20.201s0 0 0 0l-26.506-19.328s0 0 0 0c-3.442-2.51-12.891 2.106-21.086 10.301 0 0 0 0 0 0-8.196 8.195-17.86 11.84-21.567 8.132 0 0 0 0 0 0l-47.376-47.376s0 0 0 0l-48.79-48.79s0 0 0 0c-4.488-4.489-1.478-14.786 6.717-22.982 0 0 0 0 0 0 8.195-8.195 12.577-17.978 9.778-21.832 0 0 0 0 0 0a352132.36 352132.36 0 00-17.965-24.734s0 0 0 0l-19.324-26.604s0 0 0 0z" fill="none" display="block"/></g></svg>