<svg xmlns="http://www.w3.org/2000/svg" width="500" height="500" style="width:100%;height:100%"><defs><mask id="d"><g filter="url(#a)"><path fill="red" d="M-1.94-157h3.88c33.734 0 60.747 27.969 59.574 61.682l-1.94 55.781C58.458-7.442 32.115 18 0 18c-32.115 0-58.458-25.442-59.574-57.537l-1.94-55.781C-62.687-129.031-35.674-157-1.94-157z" transform="translate(250 250)" display="block"/></g></mask><mask id="c"><path fill="red" d="M33.88 26.69h7.62c45.84 0 83 37.16 83 83v27.76c0 7.62-5.71 14.03-13.28 14.9l-29.04 3.36a85.26 85.26 0 00-23.07 6.03c-18.91 7.91-39 11.88-59.11 11.92h-.3c-20.1 0-40.2-3.93-59.12-11.8l-.2-.08c-7.69-3.2-15.79-5.3-24.07-6.26l-27.53-3.17c-7.57-.87-13.28-7.28-13.28-14.9v-27.76c0-45.84 37.16-83 83-83h7.63" transform="translate(250 250)" display="block"/></mask><clipPath id="b"><path d="M0 0h500v500H0z"/></clipPath><filter id="a" filterUnits="objectBoundingBox" x="0%" y="0%" width="100%" height="100%"><feComponentTransfer in="SourceGraphic"><feFuncA type="table" tableValues="1.0 0.0"/></feComponentTransfer></filter></defs><g clip-path="url(#b)"><g mask="url(#c)" display="block"><path stroke-linecap="round" stroke-linejoin="round" stroke="#F9CC14" stroke-width="12.04" d="M177.37 282.73v87.36h32.6V308.85" fill="none"/><path stroke-linecap="round" stroke-linejoin="round" stroke="#F9CC14" stroke-width="12.04" d="M177.37 407.51v-37.42h145.26v37.28" fill="none"/><path stroke-linecap="round" stroke-linejoin="round" stroke="#F9CC14" stroke-width="12.04" d="M290.03 309.11v60.98h32.6v-87.36M189.45 278.883l39.8 58.12 20.75-26.75" fill="none"/><path stroke-linecap="round" stroke-linejoin="round" stroke="#F9CC14" stroke-width="12.04" d="M250.19 310.253l20.75 26.75 39.76-58.08" fill="none"/></g><g mask="url(#d)" display="block"><path stroke-linecap="round" stroke-linejoin="round" stroke="#F9CC14" stroke-width="12.04" d="M283.88 257.44v18.94L250 310.25l-33.87-33.87v-18.93" fill="none"/></g><path stroke-linecap="round" stroke-linejoin="round" stroke="#F9CC14" stroke-width="12.04" d="M283.88 276.69h7.62c45.84 0 83 37.16 83 83v27.76c0 7.62-5.71 14.03-13.28 14.9l-29.04 3.36a85.26 85.26 0 00-23.07 6.03c-18.91 7.91-39 11.88-59.11 11.92h-.3c-20.1 0-40.2-3.93-59.12-11.8l-.2-.08c-7.69-3.2-15.79-5.3-24.07-6.26l-27.53-3.17c-7.57-.87-13.28-7.28-13.28-14.9v-27.76c0-45.84 37.16-83 83-83h7.63M310.802 175.142l-1.228 35.321C308.458 242.558 282.115 268 250 268c0 0 0 0 0 0-32.115 0-58.458-25.442-59.574-57.537l-1.179-33.893" fill="none" display="block"/><g display="block"><path stroke-linecap="round" stroke-linejoin="round" stroke="#F9CC14" stroke-width="12.04" d="M276.344 87.509c27.567 10.714 47.098 37.508 47.098 68.867m-147.737 0c0-31.87 20.173-59.026 48.453-69.378" fill="none"/><path stroke-linecap="round" stroke-linejoin="round" stroke="#F9CC14" stroke-width="12.04" d="M329.569 175.522s-33.569.124-80.483.124c-46.299 0-79.508.146-79.508.146a2.93 2.93 0 01-2.931-2.931v-13.408a2.93 2.93 0 012.931-2.931s32.137-.146 77.901-.146c47.449 0 82.09-.124 82.09-.124a2.93 2.93 0 012.931 2.931v13.408a2.93 2.93 0 01-2.931 2.931zM224.25 114.5V76.75h52v37.5m-25.75 12.5v-50" fill="none"/></g></g></svg>